<svg xmlns="http://www.w3.org/2000/svg" viewBox="0 0 3590 3590">
<rect width="3590" height="3590" rx="646" fill="#0C1E38"/>
<g fill="#F7F6F2">
<path transform="translate(438.5,2216.7) scale(1,-1)" d="M887.5017700195312 93.50164794921875Q963.8353881835938 93.50164794921875 1035.5026245117188 106.41842651367188Q1107.1698608398438 119.335205078125 1181.6700439453125 148.16864013671875L1111.001220703125 92.33349609375L1263.1679077148438 385.335205078125H1331.669677734375L1294.6695556640625 56.16680908203125Q1218.6693115234375 21.50006103515625 1103.9190368652344 -0.249969482421875Q989.1687622070312 -22 859.5017700195312 -22Q682.5011596679688 -22 540.6675415039062 23.416656494140625Q398.83392333984375 68.83331298828125 298.7505187988281 157.16668701171875Q198.6671142578125 245.50006103515625 145.50048828125 372.9169006347656Q92.3338623046875 500.333740234375 92.50054931640625 664.5007934570312Q93.0006103515625 880.001220703125 187.75057983398438 1039.5846862792969Q282.50054931640625 1199.1681518554688 460.83392333984375 1286.7514953613281Q639.1672973632812 1374.3348388671875 889.1675415039062 1374.3348388671875Q959.5017700195312 1374.3348388671875 1026.0023193359375 1365.3346557617188Q1092.5028686523438 1356.33447265625 1177.6695556640625 1335.1676635742188L1113.669189453125 1323.33447265625L1235.0018310546875 1416.66845703125H1276.8372192382812L1327.5026245117188 933.3336181640625L1257.8336791992188 924.1671752929688L1095.1687622070312 1238.6676025390625L1154.3360595703125 1173.3331298828125Q1070.5026245117188 1221.1664428710938 1001.0857849121094 1239.0830993652344Q931.6689453125 1256.999755859375 850.5018920898438 1256.999755859375Q719.5017700195312 1256.999755859375 620.2518005371094 1222.2498474121094Q521.0018310546875 1187.4999389648438 455.0852355957031 1120.7500305175781Q389.16864013671875 1054.0001220703125 355.7520446777344 957.0001831054688Q322.33544921875 860.000244140625 321.668701171875 735.1668090820312Q321.001953125 578.1670532226562 362.5018310546875 458.2506408691406Q404.001708984375 338.334228515625 479.8349609375 257.16778564453125Q555.668212890625 176.0013427734375 659.8348999023438 134.75149536132812Q764.0015869140625 93.50164794921875 887.5017700195312 93.50164794921875Z"/>
<path transform="translate(1476.0,2790.3) scale(1.1951,-1.1951)" d="M573.001953125 1290.3348388671875H791.670166015625V104.50128173828125L954.337890625 52.00146484375V0H410.16754150390625V52.00146484375L573.001953125 104.50128173828125ZM1198.3359375 1235.8331909179688H159.50299072265625L257.335693359375 1265.8339233398438L112.3359375 960.3326416015625L43.16705322265625 968.4990844726562L88.83441162109375 1425.1686401367188H128.83636474609375L268.50177001953125 1332.66796875L166.16766357421875 1352.3348388671875H1191.6712646484375L1099.5036010742188 1332.66796875L1239.1690063476562 1425.1686401367188H1279.1709594726562L1324.8383178710938 968.4990844726562L1255.66943359375 960.3326416015625L1110.669677734375 1265.8339233398438Z"/>
</g>
</svg>